# xmcd CD database file
#
# Track frame offsets:
#	150
#	16448
#	35221
#	48398
#
# Disc length: 888 seconds
#
# Revision: 0
# Processed by: cddbd v1.5.1PL0 Copyright (c) Steve Scherf et al.
# Submitted via: CDex 1.51
#
DISCID=30037604
DTITLE=Vicki Vann - Dream Catcher
DYEAR=2005
DGENRE=Country
TTITLE0=This Is Where I Get Off
TTITLE1=White Lies and Picket Fences
TTITLE2=You Must Think My Heart Has Swing Doors
TTITLE3=Chains
EXTD=YEAR: 2005
EXTT0=
EXTT1=
EXTT2=
EXTT3=
PLAYORDER=
